<svg id="Layer_3" data-name="Layer 3" xmlns="http://www.w3.org/2000/svg" viewBox="0 0 190.8186 95.7886"><path d="M28.1466,73.7244a11.962,11.962,0,0,0,6.018,1.8159c3.32,0,4.877-1.66,4.877-3.7353,0-2.1787-1.2969-3.3721-4.6694-4.6172-4.5132-1.6084-6.6407-4.0987-6.6407-7.1074,0-4.0469,3.2686-7.3672,8.6641-7.3672A12.5337,12.5337,0,0,1,42.5694,54.27l-1.1416,3.32a9.7726,9.7726,0,0,0-5.1362-1.4526c-2.6973,0-4.2022,1.5561-4.2022,3.4238,0,2.0752,1.5049,3.0093,4.773,4.2544,4.3579,1.66,6.5889,3.8389,6.5889,7.5742,0,4.41-3.4244,7.523-9.39,7.523a14.3174,14.3174,0,0,1-7.0556-1.7124Z" style="fill:#333"/><path d="M49.3136,61.4812c0-3.2168-.1036-5.8105-.2076-8.1972h4.0987l.2075,4.3061h.104a9.8706,9.8706,0,0,1,8.9228-4.8769c6.07,0,10.6358,5.1362,10.6358,12.7627,0,9.0268-5.4995,13.4887-11.4136,13.4887a8.8041,8.8041,0,0,1-7.73-3.9428h-.104v13.644H49.3136Zm4.5136,6.6924a10.3067,10.3067,0,0,0,.2075,1.8677,7.0443,7.0443,0,0,0,6.8482,5.3433c4.8247,0,7.6265-3.9424,7.6265-9.7012,0-5.0322-2.646-9.3384-7.4707-9.3384A7.2859,7.2859,0,0,0,54.1383,62a7.42,7.42,0,0,0-.3111,1.8677Z" style="fill:#333"/><path d="M78.8331,61.118c0-2.9571-.0518-5.5-.2075-7.834h3.9951l.1553,4.9287h.2075c1.1416-3.3721,3.8911-5.4995,6.9521-5.4995a4.9491,4.9491,0,0,1,1.2969.1557v4.3062a6.8438,6.8438,0,0,0-1.5561-.1558c-3.2168,0-5.5,2.4385-6.1221,5.8623a12.882,12.882,0,0,0-.2075,2.127V78.3943H78.8331Z" style="fill:#333"/><path d="M98.7545,53.284l5.5,14.8379c.5708,1.66,1.1929,3.6313,1.6079,5.1357h.104c.4668-1.5044.9858-3.4238,1.6084-5.24l4.9805-14.7339H117.38l-6.8482,17.8984c-3.2685,8.6123-5.4995,13.0225-8.6118,15.72a12.3636,12.3636,0,0,1-5.6035,2.9571L95.1749,86.02A12.0882,12.0882,0,0,0,99.17,83.79a13.848,13.848,0,0,0,3.8394-5.0849,3.2763,3.2763,0,0,0,.3628-1.0889,3.9752,3.9752,0,0,0-.3111-1.1934L93.774,53.284Z" style="fill:#333"/><path d="M127.0294,46.0725V53.284h6.5366V56.76h-6.5366V70.3006c0,3.1128.8818,4.8769,3.4238,4.8769a10.1478,10.1478,0,0,0,2.646-.3115l.2075,3.4238a11.17,11.17,0,0,1-4.0464.6231,6.3266,6.3266,0,0,1-4.9287-1.92c-1.2969-1.3487-1.7641-3.58-1.7641-6.5367V56.76h-3.8911V53.284h3.8911V47.2659Z" style="fill:#333"/><path d="M138.7022,60.08c0-2.5943-.0517-4.7212-.2075-6.7964h4.0469l.2593,4.15h.104a9.2331,9.2331,0,0,1,8.3007-4.7212c3.4756,0,8.8711,2.0752,8.8711,10.6875V78.3943h-4.5654V63.9192c0-4.0464-1.5044-7.4184-5.8105-7.4184a6.4857,6.4857,0,0,0-6.1216,4.6689,6.5639,6.5639,0,0,0-.3115,2.127V78.3943h-4.5655Z" style="fill:#333"/><path d="M181.4,78.3943l-.3628-3.165h-.1558a9.3533,9.3533,0,0,1-7.6782,3.7353c-5.0845,0-7.6782-3.58-7.6782-7.2114,0-6.07,5.3955-9.39,15.0972-9.3384v-.5185c0-2.0752-.5708-5.8106-5.7071-5.8106a12.5149,12.5149,0,0,0-6.5371,1.8672L167.34,54.9441a15.5853,15.5853,0,0,1,8.2485-2.2309c7.6783,0,9.5459,5.24,9.5459,10.2724v9.39a35.3931,35.3931,0,0,0,.4151,6.0185Zm-.6743-12.8149c-4.9805-.1035-10.6353.7783-10.6353,5.6548a4.04,4.04,0,0,0,4.3062,4.3584,6.2476,6.2476,0,0,0,6.07-4.2027,4.76,4.76,0,0,0,.2593-1.4526Z" style="fill:#333"/><path d="M13.47,50.3451S17.087,34.179,24.6,26.9041s14.4034-8.4371,18.0561-5.6976,1.0006,9.6729-.8376,12.9279c-1.7725,3.1389-6.72,6.6774-13.2671,10.0513A120.1607,120.1607,0,0,1,13.47,50.3451Z" style="fill:#8bc53f"/><path d="M5.0318,68.8113s3.8073-5.7989,7.4313-12.4188c2.1185-3.87,2.6124-4.668,2.6124-4.668L24.55,47.6674l-1.8466,5.8283s-7.9523,7.4615-9.72,9.8177a36.584,36.584,0,0,0-3.0435,4.9088L7.5844,69.4985l-.6873-1.2763Z" style="fill:#8bc53f"/><path d="M29.5308,21.1081a17.3589,17.3589,0,0,1,4.42-3.6869,7.2638,7.2638,0,0,1,2.5-1.0046s1.1086-6.2284,3.42-9.1791a7,7,0,0,1,5.0055-2.72,6.8462,6.8462,0,0,1,2.7245.4871s-4.6676.7666-6.7588,4.5373c-2.2151,3.9942-.7065,5.1925,1.2929,6.22s4.2072,1.7461,6.2661,3.2141a4.9543,4.9543,0,0,1,2.1582,3.4914s-.3582,8.7031-3.01,13.6666S41.6115,44.999,37.033,47.2981l-4.5785,2.2991.2262-1.0879-7.6374,1.8358.9519-3.4676s9.519-4.42,11.3548-6.1194,6.8673-5.3035,8.0232-12.5107S43.4694,20.02,41.77,19.2043a11.1183,11.1183,0,0,0-8.7031.34Z" style="fill:#8bc53f"/><path d="M47.5343,4.9989c-3.12.2644-8.3235,4.0665-7.6746,8.7244,2.2956,3.7188,9.7606,3.6227,10.5424,8.3385-.2886-1.7406,1-10.1077,1.5982-11.0737l-3.9571.9042c-.4819-1.6387-.4645-1.298-1.9785-1.0046l2.9207-3.4158-.3769-1.507,1.9785.1Z" style="fill:#8bc53f;opacity:0.7000000000000001"/><path d="M44.7928,9.0542a.7307.7307,0,1,1-1.46,0A.7307.7307,0,1,1,44.7928,9.0542Z" style="fill:#231f20"/><path d="M50.587,6.0653l-1.9785-.1.3769,1.507-2.9207,3.4158c1.5348-.3,1.491-.6269,1.9784,1.0048,3.4679-.63,4.52-.4047,6.8777-3.4163Z" style="fill:#231f20"/></svg>